<?xml version="1.0" encoding="iso-8859-1"?>
<!-- Generator: Adobe Illustrator 19.0.0, SVG Export Plug-In . SVG Version: 6.00 Build 0)  -->
<svg version="1.1" id="Layer_1" xmlns="http://www.w3.org/2000/svg" xmlns:xlink="http://www.w3.org/1999/xlink" x="0px" y="0px"
	 viewBox="0 0 501.31 501.31" style="enable-background:new 0 0 501.31 501.31;" xml:space="preserve">
<g>
	<path style="fill:#F93838;" d="M196.776,318.439c8.192-2.096,13.72-9.776,14.272-19.576c0.512-10.024-4.592-18.912-13.008-22.112
		l-23.24-9.616c-79.592-33.352-83.152-34.664-87.168-34.712c-6.152-0.232-11.632,2.904-15.408,8.928
		c-8,13.048-11.384,54.144-8.632,81.416c0.984,9,2.592,16.504,4.912,20.992c3.192,6.176,8.592,9.88,14.752,10.08
		c3.944,0.224,6.384-0.464,80.456-24.664C163.712,329.167,196.616,318.511,196.776,318.439z"/>
	<path style="fill:#F93838;" d="M238.28,349.263c-9.192-3.584-19.08-1.36-24.632,5.688l-16.296,19.584
		c-55.8,66.528-58.08,69.6-59.456,73.544c-0.824,2.352-1.168,4.8-0.872,7.264c0.336,3.504,1.88,7.008,4.496,10.24
		c12.92,15.64,74.936,38.824,94.736,35.384c6.896-1.288,11.888-5.216,14.032-11.104c1.28-3.776,1.44-6.392,1.648-85.456
		c0,0,0.192-34.92,0.2-35.296C252.664,360.575,247.232,352.791,238.28,349.263z"/>
	<path style="fill:#F93838;" d="M313.192,281.687c0,0-0.344,0.592-0.448,0.72c4.16-1.616,11.568-3.448,25.088-6.704
		c84.112-20.696,87.36-21.816,90.688-24.016c5.08-3.464,7.632-9.312,7.2-16.424c0-0.24,0.032-0.456,0-0.72
		c-2.16-20.96-38.368-75.568-56.192-84.432c-6.32-3.08-12.64-2.856-17.856,0.688c-3.24,2.168-5.656,5.408-50.688,67.984
		c0,0-20.368,28.176-20.608,28.448c-5.376,6.616-5.416,16.136-0.2,24.28C295.608,279.951,304.792,284.047,313.192,281.687z"/>
	<path style="fill:#F93838;" d="M240.712,13.439c-1.728-6.312-6.576-10.84-13.592-12.64c-21.464-5.424-103.512,17.968-118.744,33.92
		c-4.856,5.168-6.688,11.56-5.224,17.176c2.384,5.016,104.088,167.56,104.088,167.56c15.056,24.768,27.312,20.936,31.32,19.664
		c3.992-1.264,16.176-5.112,14.8-34C251.912,171.287,241.896,20.439,240.712,13.439z"/>
	<path style="fill:#F93838;" d="M352.88,336.759c0,0-32.464-10.896-32.888-11.104c-7.832-3.088-16.832-0.256-22.856,7.352
		c-6.24,7.752-7.216,17.952-2.216,25.704l13.072,21.6c43.96,72.52,47.304,77.64,50.488,80.16c4.88,3.912,11.088,4.56,17.576,1.888
		c18.688-7.56,59.488-60.28,62.376-80.568c0.976-7.048-1.192-13.144-5.984-17.008C429.304,362.375,426.872,361.439,352.88,336.759z"
		/>
</g>
<g>
	<path style="fill:#CC2414;" d="M196.776,318.439c8.192-2.096,13.72-9.776,14.272-19.576c0.512-10.024-4.592-18.912-13.008-22.112
		l-23.24-9.616c-79.592-33.352-70.816-9.648-74.824-9.68c-6.152-0.248-11.632,2.888-15.416,8.92
		c-8.008,13.048-23.72,29.128-20.968,56.4c0.984,9,2.592,16.504,4.912,20.992c3.192,6.176,8.592,9.88,14.752,10.08
		c3.944,0.224,6.384-0.464,80.456-24.664C163.712,329.167,196.616,318.511,196.776,318.439z"/>
	<path style="fill:#CC2414;" d="M238.28,349.263c-9.192-3.584-12.36,17.64-17.912,24.704c0,0-16.224,19.584-16.28,19.584
		c-55.808,66.52-64.816,50.592-66.184,54.528c-0.824,2.352-1.168,4.8-0.872,7.264c0.336,3.504,1.88,7.008,4.496,10.24
		c12.92,15.64,74.936,38.824,94.736,35.384c6.896-1.288,11.888-5.216,14.032-11.104c1.28-3.776,1.44-6.392,1.648-85.456
		c0,0,0.192-34.92,0.2-35.296C252.664,360.575,247.232,352.791,238.28,349.263z"/>
	<path style="fill:#CC2414;" d="M313.192,281.687c0,0-0.344,0.592-0.448,0.72c4.16-1.616,11.568-3.448,25.088-6.704
		c84.112-20.696,87.36-21.816,90.688-24.016c5.08-3.464,7.632-9.312,7.2-16.424c0-0.24,0.032-0.456,0-0.72
		c-2.16-20.96-28.192-51.8-46.024-60.664c-6.312-3.08-12.648-2.856-17.848,0.688c-3.256,2.168-15.832-18.36-60.864,44.216
		c0,0-20.368,28.176-20.608,28.448c-5.376,6.616-5.416,16.136-0.2,24.28C295.608,279.951,304.792,284.047,313.192,281.687z"/>
	<path style="fill:#CC2414;" d="M240.712,13.439c-1.728-6.312-6.576-10.84-13.592-12.64c-21.464-5.424-61.008,26.368-76.216,42.328
		c-4.872,5.168-6.704,11.56-5.24,17.176c2.384,5.016,61.576,159.16,61.576,159.16c15.056,24.768,27.312,20.936,31.32,19.664
		c3.992-1.264,16.176-5.112,14.8-34C251.912,171.287,241.896,20.439,240.712,13.439z"/>
	<path style="fill:#CC2414;" d="M352.88,336.759c0,0-20.144-4.136-20.568-4.344c-7.848-3.08-16.832-0.256-22.856,7.352
		c-6.24,7.768-7.216,17.952-2.216,25.712l0.752,14.832c43.96,72.52,47.304,77.64,50.488,80.16c4.88,3.912,11.088,4.56,17.576,1.888
		c18.688-7.56,59.488-60.28,62.376-80.568c0.976-7.048-1.192-13.144-5.984-17.008C429.304,362.375,426.872,361.439,352.88,336.759z"
		/>
</g>
<g>
</g>
<g>
</g>
<g>
</g>
<g>
</g>
<g>
</g>
<g>
</g>
<g>
</g>
<g>
</g>
<g>
</g>
<g>
</g>
<g>
</g>
<g>
</g>
<g>
</g>
<g>
</g>
<g>
</g>
</svg>
